<svg id="Capa_1" data-name="Capa 1" xmlns="http://www.w3.org/2000/svg" viewBox="0 0 512 512"><defs><style>.cls-1{fill:#bababa;}.cls-2{fill:#636363;}.cls-3{fill:#ced6e0;}.cls-4{fill:#7a7a7a;}.cls-5{fill:#e8eae9;}.cls-6{fill:#7f7f7f;}.cls-7{fill:#f3f3f3;}.cls-8{fill:#aaa;}</style></defs><title>shops</title><rect class="cls-1" x="33.07" y="136.53" width="444.8" height="330.67"/><rect class="cls-2" x="283.73" y="228.27" width="162.13" height="238.93"/><rect class="cls-3" x="299.73" y="244.27" width="130.13" height="206.93"/><path class="cls-4" d="M0,102.4v48c0,28.8,22.4,51.2,51.2,51.2s51.2-22.4,51.2-51.2v-48Z"/><path class="cls-5" d="M102.4,102.4v48c0,28.8,22.4,51.2,51.2,51.2s51.2-22.4,51.2-51.2v-48Z"/><path class="cls-4" d="M204.8,102.4v48c0,28.8,22.4,51.2,51.2,51.2s51.2-22.4,51.2-51.2v-48Z"/><path class="cls-5" d="M307.2,102.4v48c0,28.8,22.4,51.2,51.2,51.2s51.2-22.4,51.2-51.2v-48Z"/><path class="cls-4" d="M409.6,102.4v48c0,28.8,22.4,51.2,51.2,51.2S512,179.2,512,150.4v-48Z"/><polygon class="cls-6" points="124.8 0 37.33 0 0 102.4 102.4 102.4 124.8 0"/><polygon class="cls-7" points="212.27 0 124.8 0 102.4 102.4 204.8 102.4 212.27 0"/><polygon class="cls-6" points="299.73 0 212.27 0 204.8 102.4 307.2 102.4 299.73 0"/><polygon class="cls-7" points="387.2 0 299.73 0 307.2 102.4 409.6 102.4 387.2 0"/><polygon class="cls-6" points="474.67 0 387.2 0 409.6 102.4 512 102.4 474.67 0"/><rect class="cls-3" y="467.2" width="512" height="44.8"/><circle class="cls-2" cx="320" cy="347.73" r="13.87"/><rect class="cls-2" x="65.07" y="228.27" width="180.27" height="162.13"/><rect class="cls-3" x="81.07" y="244.27" width="148.27" height="130.13"/><path class="cls-8" d="M158.93,264.53c-2.13-2.13-7.46-2.13-9.6,0L97.07,316.8c-2.14,2.13-2.14,7.47,0,9.6s7.46,2.13,9.6,0l52.26-52.27C162.13,270.93,162.13,266.67,158.93,264.53Z"/><path class="cls-8" d="M170.67,295.47c-2.14-2.14-7.47-2.14-9.6,0L128,328.53c-2.13,2.14-2.13,7.47,0,9.6s7.47,2.14,9.6,0l33.07-33.06C173.87,301.87,173.87,297.6,170.67,295.47Z"/></svg>